<?xml version="1.0" encoding="utf-8"?>
<!-- Generator: Adobe Illustrator 19.0.0, SVG Export Plug-In . SVG Version: 6.00 Build 0)  -->
<svg version="1.1" id="Layer_1" xmlns="http://www.w3.org/2000/svg" xmlns:xlink="http://www.w3.org/1999/xlink" x="0px" y="0px"
	 viewBox="0 0 200 200" style="enable-background:new 0 0 200 200;" xml:space="preserve">
<style type="text/css">
	.st0{fill:#263C92;}
	.st1{fill:none;stroke:#263C92;stroke-width:2;stroke-miterlimit:10;}
</style>
<path id="XMLID_3_" class="st0" d="M65.8,104c0-7.9,0-15.6,0-23.4c5.8,0,11.5,0,17.5,0c0-0.9,0-1.6,0-2.2c0-5.9-0.1-11.9,0-17.8
	c0.3-8.2,2.5-15.9,8.4-21.9c3.9-4,8.6-6.4,14-7.6c6-1.4,12.1-1.2,18.3-0.9c2.8,0.1,5.6,0.4,8.4,0.5c1.2,0.1,1.7,0.4,1.7,1.7
	c-0.1,6.4,0,12.8,0,19.1c0,0.2-0.1,0.5-0.1,0.9c-0.8,0-1.5,0.1-2.2,0.1c-4.8,0.1-9.6,0-14.3,0.2c-5.5,0.3-8.7,3.6-8.9,9.1
	c-0.2,5.7-0.1,11.3-0.3,17c0,1.4,0.5,1.7,1.8,1.7c7.1,0,14.3,0,21.4,0c0.7,0,1.4,0,2.3,0c-0.4,8-0.7,15.7-1.1,23.6c-1,0-1.6,0-2.3,0
	c-6.6,0-13.1,0-19.7,0c-2.4,0-2.4,0-2.4,2.5c0,20.4,0,40.8,0,61.2c0,0.7,0,1.5,0,2.3c-8.4,0-16.5,0-25,0c0-0.7,0-1.5,0-2.2
	c0-20.5,0-41.1,0.1-61.6c0-1.8-0.5-2.4-2.3-2.3c-4.4,0.1-8.8,0-13.2,0C67.2,104.1,66.6,104,65.8,104z"/>
<circle id="XMLID_1_" class="st1" cx="100" cy="100" r="98.3"/>
</svg>
