<?xml version="1.0" encoding="utf-8"?>
<!-- Generator: Adobe Illustrator 19.0.0, SVG Export Plug-In . SVG Version: 6.00 Build 0)  -->
<svg version="1.1" id="Layer_1" xmlns="http://www.w3.org/2000/svg" xmlns:xlink="http://www.w3.org/1999/xlink" x="0px" y="0px"
	 viewBox="0 0 128 64" style="enable-background:new 0 0 128 64;" xml:space="preserve">
<style type="text/css">
	.st0{fill:#D0222D;}
	.st1{fill:#FFFFFF;}
	.st2{fill:#283476;}
</style>
<g id="XMLID_2_">
	<g id="XMLID_24_">
		<path id="XMLID_41_" class="st0" d="M57.7,0.1c4.3,0,8.5,0,12.8,0c0.3,0.2,0.2,0.5,0.2,0.8c0,2.5,0,5,0,7.5c0,5.3,0,10.6,0,15.9
			c0,0.2,0,0.4,0,0.6c0,0.4,0.2,0.6,0.5,0.5c0.2,0,0.5,0,0.7,0c18.3,0,36.7,0,55,0c0.4,0,0.8-0.1,1.1,0.2c0,4.3,0,8.5,0,12.8
			c-0.1,0.2-0.3,0.2-0.5,0.2c-0.3,0-0.6,0-0.8,0c-18.3,0-36.6,0-54.8,0c-1.1,0-1.1,0-1.1,1.1c0,7.7,0,15.5,0,23.2
			c0,0.3,0.1,0.7-0.2,1c-4.3,0-8.5,0-12.8,0c-0.3-0.2-0.2-0.5-0.2-0.8c0-2.5,0-5,0-7.5c0-5.3,0-10.6,0-15.9c0-0.2,0-0.4,0-0.6
			c0-0.4-0.2-0.6-0.5-0.5c-0.2,0-0.5,0-0.7,0c-18.3,0-36.7,0-55,0c-0.4,0-0.8,0.1-1.1-0.2c0-4.3,0-8.5,0-12.8
			c0.1-0.2,0.3-0.2,0.5-0.2c0.3,0,0.6,0,0.8,0c18.3,0,36.6,0,54.8,0c1.1,0,1.1,0,1.1-1.1c0-7.7,0-15.5,0-23.2
			C57.5,0.8,57.4,0.4,57.7,0.1z"/>
		<path id="XMLID_40_" class="st1" d="M57.7,0.1c0,8.3,0,16.7,0,25c0,0.5-0.1,0.6-0.6,0.6c-19,0-38,0-57,0c0-1.4,0-2.9,0-4.3
			c0.2-0.3,0.5-0.2,0.8-0.2c4.6,0,9.3,0,13.9,0c4,0,8.1,0,12.1,0c0.2,0,0.4,0,0.6,0c-1.7-0.8-3.4-1.7-5.2-2.6
			C15.2,15.1,8.1,11.5,0.9,7.9C0.6,7.7,0.3,7.6,0.1,7.3c0-0.8,0-1.6,0-2.4c0.3-0.2,0.5,0,0.7,0.1C2,5.6,3.2,6.2,4.3,6.8
			c9.4,4.7,18.8,9.4,28.2,14.1c0.5,0.3,1,0.4,1.6,0.4c2.4,0,4.9,0,7.3,0c0.2,0,0.4,0,0.6,0c-0.1,0-0.3-0.1-0.4-0.2
			C28,14.3,14.5,7.5,0.9,0.7C0.7,0.6,0.2,0.6,0.2,0.1c4.8,0,9.5,0,14.3,0c0.7,0.1,1.3,0.5,1.9,0.8c12,6,24.1,12,36.1,18.1
			c0.3,0.1,0.5,0.3,0.8,0.5c-0.2-0.2-0.2-0.4-0.2-0.6c0-6,0-12.1,0-18.1c0-0.2,0-0.5,0.2-0.6C54.8,0.1,56.3,0.1,57.7,0.1z"/>
		<path id="XMLID_39_" class="st1" d="M70.5,64.1c0-8.3,0-16.7,0-25c0-0.5,0.1-0.6,0.6-0.6c19,0,38,0,57,0c0,1.4,0,2.9,0,4.3
			c-0.2,0.3-0.5,0.2-0.8,0.2c-4.6,0-9.3,0-13.9,0c-4,0-8.1,0-12.1,0c-0.2,0-0.4,0-0.6,0c1.7,0.8,3.4,1.7,5.2,2.6
			c7.1,3.6,14.3,7.1,21.4,10.7c0.3,0.2,0.6,0.3,0.8,0.6c0,0.8,0,1.6,0,2.4c-0.3,0.2-0.5,0-0.7-0.1c-1.2-0.6-2.3-1.2-3.5-1.7
			c-9.4-4.7-18.8-9.4-28.2-14.1c-0.5-0.3-1-0.4-1.6-0.4c-2.4,0-4.9,0-7.3,0c-0.2,0-0.4,0-0.6,0c0.1,0,0.3,0.1,0.4,0.2
			c13.5,6.8,27.1,13.5,40.6,20.3c0.3,0.1,0.7,0.2,0.7,0.6c-4.8,0-9.5,0-14.3,0c-0.7-0.1-1.3-0.5-2-0.8c-12-6-24-12-36.1-18
			c-0.2-0.1-0.5-0.2-0.7-0.4C75,45,75,45.2,75,45.4c0,6,0,12,0,17.9c0,0.3,0,0.5-0.2,0.7C73.4,64.1,71.9,64.1,70.5,64.1z"/>
		<path id="XMLID_38_" class="st1" d="M128.1,25.7c-19,0-38,0-57,0c-0.5,0-0.6-0.1-0.6-0.6c0-8.3,0-16.7,0-25c1.4,0,2.9,0,4.3,0
			C75,0.3,75,0.5,75,0.7c0,6,0,12.1,0,18.1c0,0.2,0,0.3-0.1,0.4c1.8-0.9,3.6-1.8,5.4-2.7C91,11.3,101.6,6,112.3,0.6
			c0.5-0.2,0.9-0.4,1.4-0.5c1.6,0,3.2,0,4.8,0c0,0.2-0.1,0.3-0.3,0.4c-0.1,0.1-0.3,0.2-0.4,0.2C104.3,7.5,90.7,14.2,77.2,21
			c-0.2,0.1-0.4,0.2-0.5,0.2c0.2-0.1,0.4,0,0.7,0c2.4,0,4.9,0,7.3,0c0.6,0,1.1-0.1,1.6-0.4c12-6,24-12,36-18
			c1.6-0.8,3.2-1.6,4.7-2.4c0.3-0.2,0.7-0.2,1-0.3c0.2,0.1,0.1,0.3,0.1,0.4c0,2.3,0,4.5,0,6.8c-0.2,0.3-0.5,0.4-0.8,0.6
			c-8,4-16.1,8-24.1,12c-0.9,0.4-1.7,0.9-2.5,1.3c0.1,0,0.3,0,0.5,0c8.7,0,17.4,0,26.1,0c0.3,0,0.6-0.1,0.9,0.2
			C128.1,22.8,128.1,24.3,128.1,25.7z"/>
		<path id="XMLID_37_" class="st1" d="M0.1,38.5c19,0,38,0,57,0c0.5,0,0.6,0.1,0.6,0.6c0,8.3,0,16.7,0,25c-1.4,0-2.9,0-4.3,0
			c-0.2-0.2-0.2-0.4-0.2-0.6c0-6,0-12.1,0-18.1c0-0.2,0-0.3,0.1-0.4c-1.8,0.9-3.6,1.8-5.4,2.7c-10.7,5.3-21.3,10.6-31.9,16
			c-0.5,0.2-0.9,0.4-1.4,0.5c-1.6,0-3.2,0-4.8,0c0-0.2,0.1-0.3,0.3-0.4c0.1-0.1,0.3-0.2,0.4-0.2C23.9,56.7,37.5,50,51,43.2
			c0.2-0.1,0.4-0.2,0.5-0.2c-0.2,0.1-0.4,0-0.7,0c-2.4,0-4.9,0-7.3,0c-0.6,0-1.1,0.1-1.6,0.4c-10.6,5.3-21.1,10.6-31.7,15.9
			c-3,1.5-6.1,3-9.1,4.5c-0.3,0.2-0.7,0.2-1,0.3C0,64,0.1,63.8,0.1,63.7c0-2.3,0-4.5,0-6.8c0.2-0.3,0.5-0.4,0.8-0.6
			c8-4,16.1-8,24.1-12c0.9-0.4,1.7-0.9,2.6-1.3c-0.1,0-0.3,0-0.5,0C18.4,43,9.7,43,1,43c-0.3,0-0.6,0.1-0.9-0.2
			C0.1,41.4,0.1,39.9,0.1,38.5z"/>
		<path id="XMLID_36_" class="st2" d="M53.4,0.1c0,0.4,0,0.8,0,1.1c0,5.9,0,11.8,0,17.7c0,0.2,0,0.4,0,0.5c-0.2,0-0.4-0.1-0.5-0.2
			c-12.7-6.3-25.3-12.7-38-19c-0.1-0.1-0.3-0.2-0.4-0.2C27.5,0.1,40.4,0.1,53.4,0.1z"/>
		<path id="XMLID_35_" class="st2" d="M113.7,0.1c-0.1,0.1-0.3,0.2-0.4,0.3c-12.7,6.3-25.3,12.7-38,19c-0.1,0.1-0.3,0.2-0.5,0.2
			c0-0.1,0-0.2,0-0.3c0-6.3,0-12.5,0-18.8c0-0.1,0-0.2,0-0.3C87.8,0.1,100.7,0.1,113.7,0.1z"/>
		<path id="XMLID_34_" class="st2" d="M14.5,64.1c1.8-0.9,3.5-1.8,5.3-2.7c11-5.5,22.1-11,33.1-16.5c0.2-0.1,0.3-0.2,0.5-0.2
			c0,0.2,0,0.3,0,0.4c0,6.3,0,12.6,0,18.8c0,0.1,0,0.2,0,0.2C40.4,64.1,27.5,64.1,14.5,64.1z"/>
		<path id="XMLID_33_" class="st2" d="M74.8,64.1c0-0.2,0-0.4,0-0.5c0-6.1,0-12.2,0-18.3c0-0.2,0-0.4,0-0.5c0.2,0,0.3,0.1,0.5,0.2
			c12.7,6.3,25.3,12.7,38,19c0.1,0.1,0.3,0.1,0.4,0.3C100.7,64.1,87.8,64.1,74.8,64.1z"/>
		<path id="XMLID_32_" class="st0" d="M128,0.1c-1.2,0.7-2.4,1.3-3.7,1.9C111.5,8.4,98.7,14.8,86,21.2c-0.3,0.2-0.7,0.2-1,0.2
			c-2.9,0-5.8,0-8.8,0c0.1-0.2,0.3-0.2,0.4-0.3C90.4,14.2,104.2,7.3,118,0.4c0.2-0.1,0.3-0.2,0.5-0.3C121.7,0.1,124.8,0.1,128,0.1z"
			/>
		<path id="XMLID_31_" class="st0" d="M0.2,64.1c1.3-0.8,2.7-1.4,4.1-2.1c12.6-6.3,25.3-12.6,37.9-19c0.4-0.2,0.7-0.3,1.1-0.3
			c2.7,0,5.5,0,8.2,0c0.2,0,0.3,0,0.5,0c0,0,0,0.1,0,0.1c-0.2,0.1-0.3,0.2-0.5,0.3C37.7,50.1,23.9,57,10,63.9
			C9.9,64,9.8,64,9.7,64.1C6.5,64.1,3.4,64.1,0.2,64.1z"/>
		<path id="XMLID_30_" class="st2" d="M0.1,7.3C1.3,7.8,2.4,8.4,3.6,9c8.1,4,16.2,8.1,24.2,12.1c0.1,0.1,0.3,0.1,0.4,0.2
			c-0.1,0.1-0.2,0.1-0.4,0.1c-9.2,0-18.4,0-27.5,0c-0.1,0-0.2,0-0.2,0C0.1,16.7,0.1,12,0.1,7.3z"/>
		<path id="XMLID_29_" class="st2" d="M128.1,21.4c-0.1,0-0.3,0-0.4,0c-9.1,0-18.2,0-27.3,0c-0.1,0-0.3,0-0.5-0.1
			c0.1-0.1,0.2-0.1,0.4-0.2c9.2-4.6,18.3-9.2,27.5-13.7c0.1-0.1,0.2-0.1,0.3-0.1C128.1,12,128.1,16.7,128.1,21.4z"/>
		<path id="XMLID_28_" class="st2" d="M0.1,42.8c0.2,0,0.3,0,0.5,0c9,0,18.1,0,27.1,0c0.2,0,0.3,0,0.5,0.1c-1.3,0.6-2.5,1.3-3.8,1.9
			c-8,4-16,8-23.9,12c-0.1,0.1-0.3,0.2-0.5,0.2C0.1,52.2,0.1,47.5,0.1,42.8z"/>
		<path id="XMLID_27_" class="st2" d="M128.1,56.9c-1.5-0.8-3.1-1.5-4.6-2.3c-7.7-3.8-15.4-7.7-23.1-11.5c-0.1-0.1-0.3-0.2-0.4-0.2
			c0.1-0.1,0.2-0.1,0.4-0.1c9.2,0,18.3,0,27.5,0c0.1,0,0.2,0,0.3,0C128.1,47.5,128.1,52.2,128.1,56.9z"/>
		<path id="XMLID_26_" class="st0" d="M0.2,0.1c0.2,0.2,0.6,0.3,0.9,0.5c13.7,6.8,27.3,13.7,41,20.5c0.2,0.1,0.3,0.2,0.6,0.3
			c-0.3,0-0.4,0-0.6,0c-2.7,0-5.5,0-8.2,0c-0.4,0-0.8-0.1-1.1-0.3C22,15.8,11.3,10.5,0.6,5.1C0.4,5,0.3,5,0.1,4.9c0-1.5,0-3,0-4.5
			C0.1,0.3,0,0.1,0.2,0.1z"/>
		<path id="XMLID_25_" class="st0" d="M128,64.1c-0.1-0.2-0.3-0.2-0.5-0.3C113.7,56.9,99.9,50,86.1,43.1c-0.1-0.1-0.3-0.2-0.4-0.2
			c0.2-0.1,0.4-0.1,0.5-0.1c2.8,0,5.5,0,8.3,0c0.4,0,0.7,0.1,1,0.3c10.7,5.4,21.4,10.7,32.1,16.1c0.2,0.1,0.3,0.1,0.5,0.2
			c0,1.5,0,3,0,4.5C128.1,63.9,128.2,64.1,128,64.1z"/>
	</g>
</g>
</svg>
