<?xml version="1.0" encoding="utf-8"?>
<!-- Generator: Adobe Illustrator 19.0.0, SVG Export Plug-In . SVG Version: 6.00 Build 0)  -->
<svg version="1.1" id="Layer_1" xmlns="http://www.w3.org/2000/svg" xmlns:xlink="http://www.w3.org/1999/xlink" x="0px" y="0px"
	 viewBox="0 0 400 400" style="enable-background:new 0 0 400 400;" xml:space="preserve">
<style type="text/css">
	.st0{fill:none;stroke:#F2F2F2;stroke-width:10;stroke-linecap:round;stroke-miterlimit:10;}
	.st1{fill:#234092;}
	.st2{fill:none;stroke:#234092;stroke-width:10;stroke-miterlimit:10;}
	.st3{fill:none;stroke:#234092;stroke-width:8;stroke-miterlimit:10;}
</style>
<path id="XMLID_5_" class="st0" d="M24.5,170.9C39,89.8,104.5,24.5,200,22.1c98.2,0,177.9,79.6,177.9,177.9S298.2,377.9,200,377.9
	c-95.5,0-165.4-74.6-175.8-149.7"/>
<g id="XMLID_2_">
	<path id="XMLID_3_" class="st1" d="M179.6,279.5h-5.4c-2.4,0-4.3-1.9-4.3-4.3v-1c0-2.4,1.9-4.3,4.3-4.3h5.4c2.4,0,4.3,1.9,4.3,4.3
		v1C183.9,277.5,181.9,279.5,179.6,279.5z"/>
	<path id="XMLID_13_" class="st1" d="M225.7,279.5h-5.4c-2.4,0-4.3-1.9-4.3-4.3v-1c0-2.4,1.9-4.3,4.3-4.3h5.4c2.4,0,4.3,1.9,4.3,4.3
		v1C230,277.5,228,279.5,225.7,279.5z"/>
	<path id="XMLID_4_" class="st2" d="M233.9,259.6h-67.9c-3.9,0-7.1-3.2-7.1-7.1v-74.3c0-3.9,3.2-7.1,7.1-7.1h67.9
		c3.9,0,7.1,3.2,7.1,7.1v74.3C241.1,256.4,237.9,259.6,233.9,259.6z"/>
	<path id="XMLID_16_" class="st3" d="M219.5,167.9v-40.5c0-3.8-3.1-6.9-6.9-6.9h-25.5c-3.8,0-6.9,3.1-6.9,6.9v40.5"/>
</g>
</svg>
