<?xml version="1.0" encoding="utf-8"?>
<!-- Generator: Adobe Illustrator 19.0.0, SVG Export Plug-In . SVG Version: 6.00 Build 0)  -->
<svg version="1.1" id="Layer_1" xmlns="http://www.w3.org/2000/svg" xmlns:xlink="http://www.w3.org/1999/xlink" x="0px" y="0px"
	 viewBox="0 0 400 400" style="enable-background:new 0 0 400 400;" xml:space="preserve">
<style type="text/css">
	.st0{fill:none;stroke:#F2F2F2;stroke-width:10;stroke-linecap:round;stroke-miterlimit:10;}
	.st1{fill:none;stroke:#234092;stroke-width:8;stroke-linecap:round;stroke-miterlimit:10;}
	.st2{fill:#234092;}
	.st3{fill:#234092;stroke:#234092;stroke-miterlimit:10;}
	.st4{fill:none;stroke:#234092;stroke-width:5;stroke-miterlimit:10;}
</style>
<path id="XMLID_5_" class="st0" d="M24.5,170.9C39,89.8,104.5,24.5,200,22.1c98.2,0,177.9,79.6,177.9,177.9S298.2,377.9,200,377.9
	c-95.5,0-165.4-74.6-175.8-149.7"/>
<g id="XMLID_1_">
	<path id="XMLID_6_" class="st1" d="M183.9,241.3c0,0,0-1,68.8-0.3c1.3,0,2.6,0.2,3.8,0.8c25.4,12.2,7.5,27.3,1.6,31.5
		c-0.9,0.6-2.8,1.4-3.9,1.4c-8.3,0-47.1-0.1-54.2,0c-8,0.1-11.5-15.1-11.5-15.1l-25-100.1"/>
	<line id="XMLID_10_" class="st1" x1="180.4" y1="159.5" x2="187.3" y2="186.8"/>
	<path id="XMLID_11_" class="st2" d="M138,146l-10.5,1.8c-0.5,0.1-0.8-0.4-0.7-0.8l3.7-10c0.2-0.4,0.7-0.5,1-0.2l6.8,8.2
		C138.7,145.4,138.5,146,138,146z"/>
	<path id="XMLID_14_" class="st3" d="M197.5,134.7l10.4-2c0.5-0.1,0.7-0.6,0.3-1l-6.9-8c-0.3-0.4-0.9-0.2-1,0.2l-3.5,10
		C196.7,134.4,197.1,134.8,197.5,134.7z"/>
	<path id="XMLID_12_" class="st4" d="M133.1,142.3c0,0,29.2-26.1,67.9-12.6"/>
</g>
</svg>
