<?xml version="1.0" encoding="utf-8"?>
<!-- Generator: Adobe Illustrator 19.0.0, SVG Export Plug-In . SVG Version: 6.00 Build 0)  -->
<svg version="1.1" id="Layer_1" xmlns="http://www.w3.org/2000/svg" xmlns:xlink="http://www.w3.org/1999/xlink" x="0px" y="0px"
	 viewBox="0 0 400 400" style="enable-background:new 0 0 400 400;" xml:space="preserve">
<style type="text/css">
	.st0{fill:none;stroke:#F2F2F2;stroke-width:10;stroke-linecap:round;stroke-miterlimit:10;}
	.st1{fill:none;stroke:#243E93;stroke-width:10;stroke-linecap:round;stroke-miterlimit:10;}
	.st2{fill:none;stroke:#234092;stroke-width:10;stroke-miterlimit:10;}
	.st3{fill:#234092;}
	.st4{fill:#234092;stroke:#234092;stroke-miterlimit:10;}
	.st5{fill:#234092;stroke:#234092;stroke-width:5;stroke-miterlimit:10;}
</style>
<path id="XMLID_5_" class="st0" d="M24.5,170.9C39,89.8,104.5,24.5,200,22.1c98.2,0,177.9,79.6,177.9,177.9S298.2,377.9,200,377.9
	c-95.5,0-165.4-74.6-175.8-149.7"/>
<g id="XMLID_1_">
	<path id="XMLID_6_" class="st1" d="M202.2,224.3h-40.3c-4.9,0-8.8-4-8.8-8.8v0c0-4.9,4-8.8,8.8-8.8h40.3c4.9,0,8.8,4,8.8,8.8v0
		C211,220.4,207,224.3,202.2,224.3z"/>
	<line id="XMLID_9_" class="st1" x1="153" y1="141.5" x2="159.8" y2="205"/>
	<line id="XMLID_10_" class="st1" x1="196.4" y1="141.5" x2="203.1" y2="205"/>
	<path id="XMLID_8_" class="st2" d="M161.8,224.3v28c0,2,1.7,3.7,3.7,3.7H182c0,0,9.3-22.5,18,0h43.4c1.3,0,2.3-0.9,2.5-2.2
		c0.8-7.2,0.6-29.5-34.9-29.5H161.8z"/>
	<path id="XMLID_11_" class="st3" d="M237.2,189.7l-13.1-7.6c-0.6-0.3-0.6-1.2,0-1.5l13.1-7.6c0.6-0.3,1.3,0.1,1.3,0.8V189
		C238.5,189.6,237.8,190.1,237.2,189.7z"/>
	<path id="XMLID_14_" class="st4" d="M303.6,189.7l13.1-7.6c0.6-0.3,0.6-1.2,0-1.5l-13.1-7.6c-0.6-0.3-1.3,0.1-1.3,0.8V189
		C302.3,189.6,303,190.1,303.6,189.7z"/>
	<line id="XMLID_15_" class="st5" x1="233.6" y1="181.4" x2="309" y2="181.4"/>
</g>
</svg>
