<?xml version="1.0" encoding="utf-8"?>
<!-- Generator: Adobe Illustrator 19.0.0, SVG Export Plug-In . SVG Version: 6.00 Build 0)  -->
<svg version="1.1" id="Layer_1" xmlns="http://www.w3.org/2000/svg" xmlns:xlink="http://www.w3.org/1999/xlink" x="0px" y="0px"
	 viewBox="0 0 720 720" style="enable-background:new 0 0 720 720;" xml:space="preserve">
<style type="text/css">
	.st0{fill:#FEFEFE;}
	.st1{fill:none;stroke:#02319D;stroke-width:10;stroke-miterlimit:10;}
	.st2{fill:#02319D;stroke:#000000;stroke-width:11;stroke-miterlimit:10;}
	.st3{fill:#0C39A1;}
	.st4{fill:#1D46A7;}
</style>
<g>
	<path class="st0" d="M-365.8,719.7c-113.7,0-227.4-0.2-341.1,0.3c-10.3,0-12.9-1.7-12.9-12.6c0.4-228.6,0.4-457.1,0.1-685.7
		c0-10.3,1.7-12.9,12.6-12.9C-478.5,9.2-250,9.2-21.4,8.8c10.3,0,12.9,1.7,12.9,12.6C-9,250-8.9,478.6-8.6,707.1
		c0,10.3-1.7,12.9-12.6,12.9C-136.1,719.5-250.9,719.7-365.8,719.7z"/>
	<path class="st1" d="M306.3,378.9c-10,0.2-23.8,1.1-36.4-5.4c-7.7-4-13.6,1.9-20.2,3.3c-4,0.8-7.8,3.6-11.5,0.2
		c-3.8-3.5-2-7.6-0.2-11.4c4.8-10.1,3.6-19.6,0.3-30.3c-10.7-34.7,15.2-70.9,51.6-73.3c12.4-0.8,24.8-0.5,37.3-0.2
		c33.2,0.8,58.3,26.6,58,59.2c-0.3,31.8-25.1,56.9-57.4,58C321.7,379,315.8,378.9,306.3,378.9z"/>
	<path class="st2" d="M-271.5,332.5c-9.2,0.2-23.8,0.2-35.4-5.8c-7-3.6-9.1,1.2-14.8,3.3c-3.5,1.3-14.7,8.6-18.1,5.5
		c-3.5-3.2,4-11.8,5.6-15.3c4.4-9.3,3.3-17.9,0.3-27.8c-9.8-31.8,13.9-65,47.2-67.2c11.3-0.7,22.8-0.4,34.1-0.1
		c30.4,0.8,53.4,24.3,53.1,54.2c-0.3,29.1-23,52.1-52.6,53.1C-257.4,332.6-262.8,332.5-271.5,332.5z"/>
	<path class="st3" d="M312.5,345.2c-13.8-0.8-22-3.8-28.7-9.9c-3.1-2.8-5.8-6.2-1.9-10.5c3.2-3.5,6.3-1.8,9.2,0.4
		c12.9,9.9,25.8,9.9,38.7,0c2.9-2.2,5.9-4,9.2-0.4c3.9,4.3,1.3,7.7-1.9,10.5C328.8,342.7,318.7,345.2,312.5,345.2z"/>
	<path class="st4" d="M293.3,314.5c-4.9-1.5-8.3-4.3-7.5-9.9c0.6-4.6,3.8-7.4,8.3-7.3c5.5,0.1,8.9,3.6,8.6,8.9
		C302.5,311.3,298.9,314.3,293.3,314.5z"/>
	<path class="st4" d="M326.1,314.6c-4.9-1.4-8.7-4.2-8-9.7c0.7-5.2,4.3-8.3,9.8-7.5c4.6,0.7,7.4,3.9,7.2,8.5
		C335,311.3,331.5,314,326.1,314.6z"/>
</g>
</svg>
