<?xml version="1.0" encoding="utf-8"?>
<!-- Generator: Adobe Illustrator 19.0.0, SVG Export Plug-In . SVG Version: 6.00 Build 0)  -->
<svg version="1.1" id="Layer_1" xmlns="http://www.w3.org/2000/svg" xmlns:xlink="http://www.w3.org/1999/xlink" x="0px" y="0px"
	 viewBox="0 0 720 720" style="enable-background:new 0 0 720 720;" xml:space="preserve">
<style type="text/css">
	.st0{fill:none;stroke:#02319D;stroke-width:10;stroke-miterlimit:10;}
	.st1{fill:#0C39A1;}
	.st2{fill:#1D46A7;}
</style>
<g>
	<path class="st0" d="M350.5,418.7c-10,0.2-23.8,1.1-36.4-5.4c-7.7-4-13.6,1.9-20.2,3.3c-4,0.8-7.8,3.6-11.5,0.2
		c-3.8-3.5-2-7.6-0.2-11.4c4.8-10.1,3.6-19.6,0.3-30.3c-10.7-34.7,15.2-70.9,51.6-73.3c12.4-0.8,24.8-0.5,37.3-0.2
		c33.2,0.8,58.3,26.6,58,59.2c-0.3,31.8-25.1,56.9-57.4,58C365.9,418.9,360,418.7,350.5,418.7z"/>
	<path class="st1" d="M356.7,385c-13.8-0.8-22-3.8-28.7-9.9c-3.1-2.8-5.8-6.2-1.9-10.5c3.2-3.5,6.3-1.8,9.2,0.4
		c12.9,9.9,25.8,9.9,38.7,0c2.9-2.2,5.9-4,9.2-0.4c3.9,4.3,1.3,7.7-1.9,10.5C373,382.5,362.9,385,356.7,385z"/>
	<path class="st2" d="M337.5,354.3c-4.9-1.5-8.3-4.3-7.5-9.9c0.6-4.6,3.8-7.4,8.3-7.3c5.5,0.1,8.9,3.6,8.6,8.9
		C346.7,351.1,343.1,354.1,337.5,354.3z"/>
	<path class="st2" d="M370.3,354.4c-4.9-1.4-8.7-4.2-8-9.7c0.7-5.2,4.3-8.3,9.8-7.5c4.6,0.7,7.4,3.9,7.2,8.5
		C379.2,351.1,375.7,353.8,370.3,354.4z"/>
</g>
</svg>
