<?xml version="1.0" encoding="utf-8"?>
<!-- Generator: Adobe Illustrator 19.0.0, SVG Export Plug-In . SVG Version: 6.00 Build 0)  -->
<svg version="1.1" id="Layer_1" xmlns="http://www.w3.org/2000/svg" xmlns:xlink="http://www.w3.org/1999/xlink" x="0px" y="0px"
	 viewBox="0 0 400 400" style="enable-background:new 0 0 400 400;" xml:space="preserve">
<style type="text/css">
	.st0{fill:none;stroke:#F2F2F2;stroke-width:10;stroke-linecap:round;stroke-miterlimit:10;}
	.st1{fill:none;stroke:#243E93;stroke-width:10;stroke-miterlimit:10;}
	.st2{fill:#20419A;}
	.st3{fill:#284A9F;}
</style>
<path id="XMLID_5_" class="st0" d="M24.5,170.9C39,89.8,104.5,24.5,200,22.1c98.2,0,177.9,79.6,177.9,177.9S298.2,377.9,200,377.9
	c-95.5,0-165.4-74.6-175.8-149.7"/>
<g id="XMLID_12_">
	<path id="XMLID_4_" class="st1" d="M195.9,258.7c-10,0.2-23.8,1.1-36.4-5.4c-7.7-4-13.6,1.9-20.2,3.3c-4,0.8-7.8,3.6-11.5,0.2
		c-3.8-3.5-2-7.6-0.2-11.4c4.8-10.1,3.6-19.6,0.3-30.3c-10.7-34.7,15.2-70.9,51.6-73.3c12.4-0.8,24.8-0.5,37.3-0.2
		c33.2,0.8,58.3,26.6,58,59.2c-0.3,31.8-25.1,56.9-57.4,58C211.3,258.9,205.4,258.7,195.9,258.7z"/>
	<path id="XMLID_3_" class="st2" d="M202.1,225c-13.8-0.8-22-3.8-28.7-9.9c-3.1-2.8-5.8-6.2-1.9-10.5c3.2-3.5,6.3-1.8,9.2,0.4
		c12.9,9.9,25.8,9.9,38.7,0c2.9-2.2,5.9-4,9.2-0.4c3.9,4.3,1.3,7.7-1.9,10.5C218.4,222.5,208.3,225,202.1,225z"/>
	<path id="XMLID_2_" class="st3" d="M182.9,194.3c-4.9-1.5-8.3-4.3-7.5-9.9c0.6-4.6,3.8-7.4,8.3-7.3c5.5,0.1,8.9,3.6,8.6,8.9
		C192.1,191.1,188.5,194.1,182.9,194.3z"/>
	<path id="XMLID_6_" class="st3" d="M215.7,194.4c-4.9-1.4-8.7-4.2-8-9.7c0.7-5.2,4.3-8.3,9.8-7.5c4.6,0.7,7.4,3.9,7.2,8.5
		C224.6,191.1,221.1,193.8,215.7,194.4z"/>
</g>
</svg>
