<?xml version="1.0" encoding="utf-8"?>
<!-- Generator: Adobe Illustrator 19.0.0, SVG Export Plug-In . SVG Version: 6.00 Build 0)  -->
<svg version="1.1" id="Layer_1" xmlns="http://www.w3.org/2000/svg" xmlns:xlink="http://www.w3.org/1999/xlink" x="0px" y="0px"
	 viewBox="0 0 200 200" style="enable-background:new 0 0 200 200;" xml:space="preserve">
<style type="text/css">
	.st0{fill:none;stroke:#263C92;stroke-width:2;stroke-miterlimit:10;}
	.st1{fill:#263C92;}
	.st2{fill:#DBD9D9;}
</style>
<circle id="XMLID_1_" class="st0" cx="100" cy="100" r="98.3"/>
<path id="XMLID_20_" class="st1" d="M34.4,82.8c4.1,2.1,8.1,3.3,12.6,3.6c-14.9-11.5-14.6-29-8.4-38.8C54.3,66.1,74.2,76.3,98.5,78
	c-1.9-10.4,0.4-19.5,7.7-27c11.1-11.4,29.1-11.9,40.8-1c1.2,1.1,2.2,1.2,3.7,0.9c5.2-1.3,10.1-3.2,14.7-5.8c0.4-0.2,0.8-0.4,1.2-0.6
	c0,0,0.1,0.1,0.1,0.1c-1.5,5.4-4.2,9-11.9,15.6c5.5-0.7,10.7-2.3,16-4.4c-3.8,5.7-8.2,10.3-13.3,14.2c-0.9,0.7-1.3,1.3-1.2,2.5
	c1,35.8-23.1,75.8-66.4,83.7c-21,3.8-40.8,0.6-59.2-10.3c-0.5-0.3-1.2-0.5-1.6-1.3c15.6,1.4,29.7-2.4,42.4-11.9
	c-13.3-1.3-22.2-7.9-27.1-20.5c4.4,0.7,8.4,0.7,12.9-0.4c-6.9-1.8-12.4-5.1-16.6-10.5C36.5,96.1,34.3,90,34.4,82.8z"/>
<path id="XMLID_19_" class="st2" d="M31.4,36.5c-1.3,1.7-2.4,3.6-4.2,4.8C28.1,39.3,29.4,37.6,31.4,36.5z"/>
</svg>
